<?xml version="1.0" encoding="UTF-8"?><svg id="_이어_2" xmlns="http://www.w3.org/2000/svg" viewBox="0 0 274.14 244.26"><defs><style>.cls-1{fill:#fff;}</style></defs><g id="_이어_2-2"><g><rect class="cls-1" width="274.14" height="244.26"/><path d="M135.69,204.27c-7.44,0-14.3-.98-20.57-2.95-6.27-1.97-11.71-4.7-16.3-8.21-4.59-3.5-8.28-7.66-11.05-12.47-2.77-4.81-4.52-10.06-5.25-15.75h23.63c2.19,6.56,5.83,11.34,10.94,14.33,5.1,2.99,11.52,4.49,19.25,4.49,4.08,0,7.95-.69,11.6-2.08,3.64-1.39,6.82-3.43,9.52-6.13,2.7-2.7,4.81-6.05,6.35-10.06,1.53-4.01,2.3-8.64,2.3-13.89v-12.91c-3.36,4.81-8.13,8.86-14.33,12.14-6.2,3.28-13.09,4.92-20.68,4.92s-14.33-1.42-20.68-4.27c-6.35-2.84-11.89-6.78-16.63-11.82-4.74-5.03-8.46-10.94-11.16-17.72-2.7-6.78-4.05-14.04-4.05-21.77s1.35-14.95,4.05-21.66c2.7-6.71,6.42-12.58,11.16-17.61,4.74-5.03,10.28-8.97,16.63-11.82,6.35-2.84,13.24-4.27,20.68-4.27s14.48,1.61,20.68,4.81c6.2,3.21,10.97,7.22,14.33,12.03v-14.66h24.07v102.62c0,9.48-1.46,17.69-4.38,24.61-2.92,6.93-6.86,12.62-11.82,17.07-4.96,4.45-10.76,7.73-17.39,9.85-6.64,2.11-13.6,3.17-20.9,3.17Zm-.22-70.67c4.67,0,8.97-.84,12.91-2.52,3.94-1.68,7.36-3.97,10.28-6.89,2.92-2.92,5.21-6.45,6.89-10.61,1.68-4.16,2.52-8.64,2.52-13.46s-.84-9.3-2.52-13.46c-1.68-4.16-3.98-7.69-6.89-10.61-2.92-2.92-6.35-5.21-10.28-6.89-3.94-1.68-8.24-2.52-12.91-2.52s-8.97,.84-12.91,2.52c-3.94,1.68-7.37,3.98-10.28,6.89-2.92,2.92-5.22,6.45-6.89,10.61-1.68,4.16-2.52,8.64-2.52,13.46s.84,9.3,2.52,13.46c1.68,4.16,3.97,7.7,6.89,10.61,2.92,2.92,6.35,5.22,10.28,6.89,3.94,1.68,8.24,2.52,12.91,2.52Z"/></g></g></svg>