<?xml version="1.0" encoding="UTF-8"?><svg id="_이어_2" xmlns="http://www.w3.org/2000/svg" viewBox="0 0 274.14 244.26"><defs><style>.cls-1{fill:#fff;}.cls-2{fill:#100f0d;}</style></defs><g id="_이어_2-2"><g><rect class="cls-1" width="274.14" height="244.26"/><g><path class="cls-2" d="M137.07,96c-7.1,0-7.99,.03-10.77,.16-2.78,.13-4.68,.57-6.34,1.21-1.72,.67-3.18,1.56-4.63,3.01-1.45,1.45-2.35,2.91-3.01,4.63-.65,1.66-1.09,3.56-1.21,6.34-.13,2.79-.16,3.68-.16,10.77s.03,7.99,.16,10.77c.13,2.78,.57,4.68,1.21,6.34,.67,1.72,1.56,3.18,3.01,4.63,1.45,1.45,2.91,2.35,4.63,3.01,1.66,.65,3.56,1.09,6.34,1.21,2.79,.13,3.68,.16,10.77,.16s7.99-.03,10.77-.16c2.78-.13,4.68-.57,6.34-1.21,1.72-.67,3.18-1.56,4.63-3.01,1.45-1.45,2.35-2.91,3.01-4.63,.65-1.66,1.09-3.56,1.21-6.34,.13-2.79,.16-3.68,.16-10.77s-.03-7.99-.16-10.77c-.13-2.78-.57-4.68-1.21-6.34-.67-1.72-1.56-3.18-3.01-4.63-1.45-1.45-2.91-2.35-4.63-3.01-1.66-.65-3.56-1.09-6.34-1.21-2.79-.13-3.68-.16-10.77-.16Zm0,4.71c6.98,0,7.8,.03,10.56,.15,2.55,.12,3.93,.54,4.85,.9,1.22,.47,2.09,1.04,3,1.95,.91,.91,1.48,1.78,1.95,3,.36,.92,.78,2.3,.9,4.85,.13,2.76,.15,3.58,.15,10.56s-.03,7.8-.15,10.56c-.12,2.55-.54,3.93-.9,4.85-.47,1.22-1.04,2.09-1.95,3-.91,.91-1.78,1.48-3,1.95-.92,.36-2.3,.78-4.85,.9-2.75,.13-3.58,.15-10.56,.15s-7.8-.03-10.56-.15c-2.55-.12-3.93-.54-4.85-.9-1.22-.47-2.09-1.04-3-1.95-.91-.91-1.48-1.78-1.95-3-.36-.92-.78-2.3-.9-4.85-.13-2.76-.15-3.58-.15-10.56s.03-7.8,.15-10.56c.12-2.55,.54-3.93,.9-4.85,.47-1.22,1.04-2.09,1.95-3,.91-.91,1.78-1.48,3-1.95,.92-.36,2.3-.78,4.85-.9,2.76-.13,3.58-.15,10.56-.15"/><path class="cls-2" d="M137.07,130.84c-4.81,0-8.71-3.9-8.71-8.71s3.9-8.71,8.71-8.71,8.71,3.9,8.71,8.71-3.9,8.71-8.71,8.71Zm0-22.13c-7.41,0-13.42,6.01-13.42,13.42s6.01,13.42,13.42,13.42,13.42-6.01,13.42-13.42-6.01-13.42-13.42-13.42m17.08-.53c0,1.73-1.4,3.14-3.14,3.14s-3.14-1.4-3.14-3.14,1.4-3.14,3.14-3.14,3.14,1.4,3.14,3.14"/></g></g></g></svg>