<?xml version="1.0" encoding="UTF-8"?><svg id="_이어_2" xmlns="http://www.w3.org/2000/svg" viewBox="0 0 274.14 244.26"><defs><style>.cls-1{fill:#fff;}.cls-2{fill:#100f0d;}</style></defs><g id="_이어_2-2"><g><rect class="cls-1" width="274.14" height="244.26"/><g><path d="M68.91,117.87h3.81v15.49c0,2.82-.7,4.84-2.1,6.08-1.4,1.24-3.43,1.86-6.1,1.86-.94,0-1.82-.1-2.66-.29-.83-.19-1.57-.5-2.22-.93-.65-.43-1.19-.98-1.62-1.65s-.71-1.48-.86-2.42h3.78c.17,.81,.54,1.39,1.1,1.74,.57,.35,1.42,.53,2.58,.53,.85,0,1.56-.11,2.11-.34,.55-.22,.99-.53,1.31-.91,.32-.38,.54-.83,.67-1.33,.13-.5,.19-1.03,.19-1.58v-2.02c-.51,.85-1.21,1.51-2.08,1.98-.88,.47-1.89,.7-3.04,.7-1.05,0-2.02-.2-2.93-.59-.91-.39-1.69-.97-2.35-1.73-.66-.76-1.18-1.67-1.55-2.74-.37-1.07-.56-2.27-.56-3.62s.19-2.55,.56-3.62c.37-1.07,.89-1.97,1.55-2.72,.66-.75,1.44-1.32,2.35-1.71,.91-.39,1.88-.59,2.93-.59,1.15,0,2.16,.23,3.04,.7,.88,.47,1.57,1.13,2.08,1.98v-2.3Zm.16,8.25c0-.96-.12-1.79-.35-2.5-.23-.7-.55-1.28-.94-1.74-.4-.46-.86-.8-1.41-1.02-.54-.22-1.12-.34-1.74-.34-1.34,0-2.39,.5-3.14,1.5-.75,1-1.12,2.37-1.12,4.1s.37,3.16,1.12,4.16c.75,1,1.79,1.5,3.14,1.5,.62,0,1.2-.11,1.74-.34,.54-.22,1.01-.57,1.41-1.04,.39-.47,.71-1.06,.94-1.78,.24-.71,.35-1.55,.35-2.51Z"/><path d="M85.92,121.74c-.64-.06-1.25-.1-1.82-.1s-1.13,.07-1.6,.21c-.47,.14-.86,.37-1.18,.7s-.57,.78-.74,1.36-.26,1.29-.26,2.14v9.02h-3.81v-17.21h3.74v3.07c.47-.96,1.1-1.71,1.9-2.26s1.72-.83,2.77-.85c.15,0,.31,0,.5,.02,.18,.01,.35,.03,.5,.05v3.84Z"/><path d="M91.75,111.88v3.84h-3.81v-3.84h3.81Zm0,5.98v17.21h-3.81v-17.21h3.81Z"/><path d="M107.13,111.88h3.81v23.2h-3.81v-2.27c-.51,.85-1.21,1.51-2.08,1.98s-1.89,.7-3.04,.7c-1.05,0-2.02-.21-2.93-.62-.91-.42-1.69-1.02-2.35-1.81s-1.18-1.74-1.55-2.85-.56-2.36-.56-3.74,.19-2.6,.56-3.71,.89-2.06,1.55-2.85,1.45-1.39,2.35-1.81c.91-.42,1.88-.62,2.93-.62,1.15,0,2.16,.23,3.04,.7,.88,.47,1.57,1.13,2.08,1.98v-8.29Zm.16,14.59c0-.98-.12-1.84-.35-2.59-.23-.75-.55-1.36-.94-1.84-.4-.48-.86-.84-1.41-1.09s-1.12-.37-1.74-.37c-1.34,0-2.39,.53-3.14,1.58-.75,1.06-1.12,2.49-1.12,4.3s.37,3.28,1.12,4.34c.75,1.06,1.79,1.58,3.14,1.58,.62,0,1.2-.12,1.74-.37s1.01-.61,1.41-1.1c.39-.49,.71-1.1,.94-1.84,.23-.74,.35-1.61,.35-2.61Z"/><path d="M124.14,121.74c-.64-.06-1.25-.1-1.82-.1s-1.13,.07-1.6,.21c-.47,.14-.86,.37-1.18,.7s-.57,.78-.74,1.36-.26,1.29-.26,2.14v9.02h-3.81v-17.21h3.74v3.07c.47-.96,1.1-1.71,1.9-2.26s1.72-.83,2.77-.85c.15,0,.31,0,.5,.02,.18,.01,.35,.03,.5,.05v3.84Z"/><path d="M133.58,117.48c1.09,0,2.13,.18,3.14,.54,1,.36,1.89,.91,2.67,1.65,.78,.74,1.4,1.67,1.87,2.8,.47,1.13,.7,2.47,.7,4.03s-.23,2.9-.7,4.03c-.47,1.13-1.09,2.06-1.87,2.8-.78,.74-1.67,1.28-2.67,1.63-1,.35-2.05,.53-3.14,.53s-2.13-.18-3.14-.53c-1-.35-1.89-.9-2.67-1.63-.78-.74-1.4-1.67-1.87-2.8-.47-1.13-.7-2.47-.7-4.03s.23-2.9,.7-4.03c.47-1.13,1.09-2.06,1.87-2.8s1.67-1.29,2.67-1.65c1-.36,2.05-.54,3.14-.54Zm0,14.91c.64,0,1.23-.12,1.76-.37s1-.61,1.41-1.09c.4-.48,.72-1.09,.94-1.82,.22-.74,.34-1.6,.34-2.61s-.11-1.84-.34-2.59c-.22-.75-.54-1.36-.94-1.86-.41-.49-.88-.86-1.41-1.1s-1.12-.37-1.76-.37-1.23,.12-1.76,.37-1,.61-1.41,1.1c-.41,.49-.72,1.11-.94,1.86-.22,.75-.34,1.61-.34,2.59s.11,1.87,.34,2.61c.22,.74,.54,1.34,.94,1.82s.88,.84,1.41,1.09,1.12,.37,1.76,.37Z"/><path d="M152.15,117.48c1.09,0,2.13,.18,3.14,.54,1,.36,1.89,.91,2.67,1.65,.78,.74,1.4,1.67,1.87,2.8,.47,1.13,.7,2.47,.7,4.03s-.23,2.9-.7,4.03c-.47,1.13-1.09,2.06-1.87,2.8-.78,.74-1.67,1.28-2.67,1.63-1,.35-2.05,.53-3.14,.53s-2.13-.18-3.14-.53c-1-.35-1.89-.9-2.67-1.63-.78-.74-1.4-1.67-1.87-2.8-.47-1.13-.7-2.47-.7-4.03s.23-2.9,.7-4.03c.47-1.13,1.09-2.06,1.87-2.8s1.67-1.29,2.67-1.65c1-.36,2.05-.54,3.14-.54Zm0,14.91c.64,0,1.23-.12,1.76-.37s1-.61,1.41-1.09c.4-.48,.72-1.09,.94-1.82,.22-.74,.34-1.6,.34-2.61s-.11-1.84-.34-2.59c-.22-.75-.54-1.36-.94-1.86-.41-.49-.88-.86-1.41-1.1s-1.12-.37-1.76-.37-1.23,.12-1.76,.37-1,.61-1.41,1.1c-.41,.49-.72,1.11-.94,1.86-.22,.75-.34,1.61-.34,2.59s.11,1.87,.34,2.61c.22,.74,.54,1.34,.94,1.82s.88,.84,1.41,1.09,1.12,.37,1.76,.37Z"/><path d="M167.15,135.08h-3.81v-17.21h3.81v2.4c.49-.9,1.16-1.58,2-2.06,.84-.48,1.84-.72,2.99-.72,1.34,0,2.42,.27,3.22,.8s1.4,1.28,1.81,2.24c.75-1.09,1.6-1.87,2.56-2.34,.96-.47,1.97-.7,3.04-.7s1.89,.16,2.61,.48c.71,.32,1.29,.78,1.74,1.38,.45,.6,.77,1.31,.98,2.14,.2,.83,.3,1.76,.3,2.78v10.81h-3.81v-9.89c0-.58-.03-1.14-.08-1.7-.05-.55-.18-1.05-.38-1.49-.2-.44-.51-.78-.91-1.04s-.96-.38-1.66-.38-1.3,.13-1.78,.4c-.48,.27-.87,.63-1.17,1.1-.3,.47-.51,1.03-.64,1.7s-.19,1.38-.19,2.14v9.15h-3.81v-9.89c0-.58-.03-1.14-.08-1.7-.05-.55-.18-1.05-.38-1.49-.2-.44-.51-.78-.91-1.04s-.96-.38-1.66-.38-1.3,.13-1.78,.4c-.48,.27-.87,.63-1.17,1.1-.3,.47-.51,1.03-.64,1.7s-.19,1.38-.19,2.14v9.15Z"/><path d="M191.98,135.08v-4.35h4.35v4.35h-4.35Z"/><path d="M208.89,126.12l6.27,8.96h-4.48l-4.06-5.79-4.13,5.79h-4.19l6.27-8.74-5.92-8.48h4.48l3.68,5.31,3.81-5.31h4.16l-5.89,8.25Z"/><path d="M217.36,140.68v-2.91h1.44c.4,0,.76-.02,1.07-.05s.59-.13,.83-.29,.46-.4,.66-.72c.19-.32,.38-.76,.58-1.31l.19-.42-6.24-17.12h4.16l3.9,12.35,3.9-12.35h3.9l-6.05,17.18c-.41,1.11-.79,2.03-1.17,2.75-.37,.72-.81,1.3-1.3,1.73-.49,.43-1.07,.73-1.73,.9-.66,.17-1.47,.26-2.43,.26h-1.73Z"/><path d="M232.69,132.17l9.21-11.39h-8.58v-2.91h13.31v2.91l-9.25,11.39h9.47v2.91h-14.17v-2.91Z"/></g><g><path class="cls-2" d="M37.85,112.59c-3.8,0-4.28,.02-5.77,.08-1.49,.07-2.51,.3-3.4,.65-.92,.36-1.7,.84-2.48,1.61-.78,.78-1.26,1.56-1.61,2.48-.35,.89-.58,1.91-.65,3.4-.07,1.49-.08,1.97-.08,5.77s.02,4.28,.08,5.77c.07,1.49,.3,2.51,.65,3.4,.36,.92,.84,1.7,1.61,2.48,.78,.78,1.56,1.26,2.48,1.61,.89,.35,1.91,.58,3.4,.65,1.49,.07,1.97,.08,5.77,.08s4.28-.02,5.77-.08c1.49-.07,2.51-.3,3.4-.65,.92-.36,1.7-.84,2.48-1.61,.78-.78,1.26-1.56,1.61-2.48,.35-.89,.58-1.91,.65-3.4,.07-1.49,.08-1.97,.08-5.77s-.02-4.28-.08-5.77c-.07-1.49-.3-2.51-.65-3.4-.36-.92-.84-1.7-1.61-2.48-.78-.78-1.56-1.26-2.48-1.61-.89-.35-1.91-.58-3.4-.65-1.49-.07-1.97-.08-5.77-.08Zm0,2.52c3.74,0,4.18,.01,5.65,.08,1.36,.06,2.1,.29,2.6,.48,.65,.25,1.12,.56,1.61,1.05,.49,.49,.79,.96,1.05,1.61,.19,.49,.42,1.23,.48,2.6,.07,1.48,.08,1.92,.08,5.65s-.01,4.18-.08,5.65c-.06,1.36-.29,2.1-.48,2.6-.25,.65-.56,1.12-1.05,1.61-.49,.49-.96,.79-1.61,1.05-.49,.19-1.23,.42-2.6,.48-1.47,.07-1.92,.08-5.65,.08s-4.18-.01-5.65-.08c-1.36-.06-2.1-.29-2.6-.48-.65-.25-1.12-.56-1.61-1.05-.49-.49-.79-.96-1.05-1.61-.19-.49-.42-1.23-.48-2.6-.07-1.48-.08-1.92-.08-5.65s.01-4.18,.08-5.65c.06-1.36,.29-2.1,.48-2.6,.25-.65,.56-1.12,1.05-1.61,.49-.49,.96-.79,1.61-1.05,.49-.19,1.23-.42,2.6-.48,1.48-.07,1.92-.08,5.65-.08"/><path d="M37.37,134.26c-1,0-1.95-.2-2.82-.61s-1.63-.95-2.26-1.65c-.63-.7-1.13-1.51-1.49-2.44-.36-.93-.55-1.92-.55-2.98s.18-2.06,.55-2.98,.86-1.74,1.49-2.44c.63-.7,1.38-1.25,2.26-1.65s1.82-.61,2.82-.61c1.06,0,2.01,.23,2.85,.69,.84,.46,1.46,.99,1.88,1.58v-1.98h3.25v14.77h-3.25v-1.98c-.41,.59-1.04,1.12-1.88,1.58-.84,.46-1.79,.69-2.85,.69Zm.59-2.96c.65,0,1.25-.12,1.79-.37,.54-.25,1-.58,1.39-1s.68-.92,.9-1.49c.22-.57,.32-1.19,.32-1.86s-.11-1.29-.32-1.86c-.22-.57-.52-1.07-.9-1.49-.38-.42-.85-.76-1.39-1-.54-.25-1.14-.37-1.79-.37s-1.25,.12-1.79,.37c-.54,.25-1,.58-1.39,1-.38,.42-.68,.92-.9,1.49-.22,.57-.32,1.19-.32,1.86s.11,1.29,.32,1.86c.22,.57,.52,1.07,.9,1.49s.85,.76,1.39,1,1.14,.37,1.79,.37Z"/></g></g></g></svg>