<?xml version="1.0" encoding="UTF-8"?><svg id="_이어_2" xmlns="http://www.w3.org/2000/svg" viewBox="0 0 274.14 244.26"><defs><style>.cls-1{fill:#fff;}</style></defs><g id="_이어_2-2"><g><rect class="cls-1" width="274.14" height="244.26"/><g><path d="M60.2,111.07h-12.96v-4.57h31.24v4.57h-12.82v26.68h-5.47v-26.68Z"/><path d="M113.51,106.5v31.24h-5.47v-13.79h-20.38v13.79h-5.47v-31.24h5.47v12.93h20.38v-12.93h5.47Z"/><path d="M150.4,106.5v31.24h-5.47v-13.79h-20.41v13.79h-5.47v-31.24h5.47v12.93h20.41v-12.93h5.47Z"/><path d="M166.67,106.5h7.89l11.72,31.24h-5.99l-2.46-6.94h-14.78l-2.41,6.94h-5.6l11.64-31.24Zm-2.03,19.74h11.55l-5.77-15.17-5.77,15.17Z"/><path d="M206.18,131.79l5.08-14.85h5.12l-8.01,20.81h-4.63l-8.1-20.81h5.41l5.12,14.85Z"/><path d="M221.77,137.75v-23.79h-6.98v-3.53c1.12-.03,2.11-.09,2.97-.19,.86-.1,1.62-.28,2.28-.54s1.23-.64,1.72-1.14,.93-1.19,1.34-2.05h3.79v31.24h-5.13Z"/></g></g></g></svg>